<svg width="16" height="16" viewBox="0 0 16 16" fill="none" xmlns="http://www.w3.org/2000/svg">
<path fill-rule="evenodd" clip-rule="evenodd" d="M13.3344 0.701621L14.7672 2.1328C16.2223 3.59032 17.3557 7.38658 12.371 12.3722C9.96278 14.7795 7.62405 16 5.41781 16C3.56598 16 2.50357 15.1379 2.1324 14.7668L0.700424 13.3356C-0.233475 12.4017 -0.233475 10.8835 0.700424 9.94961L1.96638 8.68366C2.41816 8.23108 3.02 7.98204 3.65937 7.98204C4.29873 7.98204 4.90057 8.23108 5.35236 8.68366L6.45308 9.78438L9.78319 6.45428L8.68246 5.35355C7.74857 4.41966 7.74857 2.90147 8.68246 1.96757L9.94842 0.701621C10.4002 0.24904 11.002 0 11.6414 0C12.2808 0 12.8826 0.24904 13.3344 0.701621ZM11.0771 1.83028L9.81112 3.09623C9.49903 3.40833 9.49903 3.9128 9.81112 4.22489L10.6748 5.08855L13.0702 2.69394L12.2057 1.83028C12.0501 1.67463 11.8457 1.59641 11.6414 1.59641C11.4371 1.59641 11.2327 1.67463 11.0771 1.83028ZM1.82908 12.2069C1.51699 11.8948 1.51699 11.3904 1.82908 11.0783L3.09504 9.81232C3.25069 9.65667 3.45503 9.57845 3.65937 9.57845C3.86371 9.57845 4.06805 9.65667 4.2237 9.81232L5.08735 10.676L2.69354 13.0706L1.82908 12.2069ZM5.41781 14.4036C6.81147 14.4036 8.78144 13.7036 11.2423 11.2435C15.6037 6.88132 14.4351 4.05967 13.6345 3.25827L11.2391 5.65288L11.4762 5.88995C11.7883 6.20205 11.7883 6.70651 11.4762 7.01861L7.01741 11.4774C6.86176 11.633 6.65742 11.7113 6.45308 11.7113C6.24874 11.7113 6.0444 11.633 5.88875 11.4774L5.65168 11.2403C5.65168 11.2403 3.25787 13.6349 3.26106 13.6381C3.60828 13.9861 4.34103 14.4036 5.41781 14.4036Z" fill="#F5F5F5"/>
</svg>
